<svg width="512" height="512" viewBox="0 0 512 512" fill="none" xmlns="http://www.w3.org/2000/svg">
<rect width="512" height="512" fill="url(#paint0_linear_16_2)"/>
<path d="M208.5 351V145.167L398.5 113.5V319.333" stroke="white" stroke-width="30" stroke-linecap="round" stroke-linejoin="round"/>
<path d="M161 398.5C187.234 398.5 208.5 377.234 208.5 351C208.5 324.766 187.234 303.5 161 303.5C134.766 303.5 113.5 324.766 113.5 351C113.5 377.234 134.766 398.5 161 398.5Z" stroke="white" stroke-width="30" stroke-linecap="round" stroke-linejoin="round"/>
<path d="M351 366.833C377.234 366.833 398.5 345.567 398.5 319.333C398.5 293.1 377.234 271.833 351 271.833C324.766 271.833 303.5 293.1 303.5 319.333C303.5 345.567 324.766 366.833 351 366.833Z" stroke="white" stroke-width="30" stroke-linecap="round" stroke-linejoin="round"/>
<defs>
<linearGradient id="paint0_linear_16_2" x1="512" y1="0" x2="0" y2="512" gradientUnits="userSpaceOnUse">
<stop stop-color="#F45355"/>
<stop offset="1" stop-color="#7A58FF"/>
</linearGradient>
</defs>
</svg>
