<svg width="516" height="516" viewBox="0 0 516 516" fill="none" xmlns="http://www.w3.org/2000/svg">
<g clip-path="url(#clip0_50_54)">
<path d="M516 0H0V516H516V0Z" fill="url(#paint0_radial_50_54)"/>
<path d="M292.395 178.348C289.571 181.23 287.988 185.104 287.988 189.139C287.988 193.175 289.571 197.049 292.395 199.931L317.062 224.598C319.944 227.423 323.818 229.005 327.854 229.005C331.889 229.005 335.764 227.423 338.645 224.598L396.766 166.477C404.518 183.608 406.865 202.694 403.495 221.193C400.124 239.692 391.196 256.724 377.9 270.02C364.605 283.315 347.572 292.244 329.074 295.614C310.575 298.985 291.489 296.637 274.358 288.885L167.829 395.414C161.696 401.548 153.377 404.993 144.704 404.993C136.03 404.993 127.712 401.548 121.579 395.414C115.446 389.281 112 380.963 112 372.289C112 363.616 115.446 355.298 121.579 349.164L228.108 242.635C220.356 225.504 218.009 206.418 221.379 187.919C224.75 169.421 233.678 152.389 246.974 139.093C260.269 125.797 277.302 116.869 295.8 113.498C314.299 110.128 333.385 112.475 350.516 120.227L292.55 178.194L292.395 178.348Z" fill="#eee" stroke="#eee" stroke-width="20" stroke-linecap="round" stroke-linejoin="round"/>
</g>
<defs>
<radialGradient id="paint0_radial_50_54" cx="0" cy="0" r="1" gradientUnits="userSpaceOnUse" gradientTransform="translate(87.3231 179.112) rotate(68.6711) scale(469.252)">
<stop stop-color="#999999"/>
<stop offset="1" stop-color="#666666"/>
</radialGradient>
<linearGradient id="paint1_linear_50_54" x1="258.497" y1="112" x2="258.497" y2="404.993" gradientUnits="userSpaceOnUse">
<stop stop-color="#CCCCCC"/>
<stop offset="1" stop-color="#F9F9F9"/>
</linearGradient>
<clipPath id="clip0_50_54">
<rect width="516" height="516" fill="white"/>
</clipPath>
</defs>
</svg>
