<svg xmlns="http://www.w3.org/2000/svg" width="512" height="512" viewBox="0 0 512 512" fill="none">
<g clip-path="url(#clip0_114_457)">
<path d="M396 0H116C51.935 0 0 51.935 0 116V396C0 460.065 51.935 512 116 512H396C460.065 512 512 460.065 512 396V116C512 51.935 460.065 0 396 0Z" fill="#01B3FF"/>
<path d="M85 148.806V362.694C85 377.498 97.0016 389.5 111.806 389.5H400.194C414.998 389.5 427 377.498 427 362.694V185.296C427 170.492 414.998 158.49 400.194 158.49H254.055C243.636 158.49 234.278 152.34 228.396 143.741C221.47 133.617 210.991 122 199.373 122H111.802C96.9972 122 85 134.002 85 148.806Z" fill="white" fill-opacity="0.5"/>
<path d="M427 185.307V362.694C427 377.498 414.998 389.5 400.194 389.5H111.806C97.0016 389.5 85 377.498 85 362.694V203.454C85 188.65 96.9881 176.648 111.793 176.648H193.33C223.77 176.648 219.517 158.499 240.332 158.5C292.667 158.502 362.562 158.501 400.232 158.501C415.037 158.5 427 170.502 427 185.307Z" fill="white"/>
</g>
<defs>
<clipPath id="clip0_114_457">
<rect width="512" height="512" fill="white"/>
</clipPath>
</defs>
</svg>