<svg width="512" height="512" viewBox="0 0 512 512" fill="none" xmlns="http://www.w3.org/2000/svg">
<rect width="512" height="512" fill="url(#paint0_linear_1_64)"/>
<path d="M343.083 366.833H208.5C187.946 366.828 167.799 361.107 150.309 350.311C132.819 339.514 118.676 324.067 109.46 305.695C100.245 287.323 96.3192 266.75 98.1226 246.275C99.926 225.801 107.387 206.231 119.673 189.753C131.958 173.275 148.583 160.538 167.691 152.964C186.799 145.391 207.636 143.28 227.874 146.868C248.113 150.456 266.955 159.601 282.295 173.28C297.635 186.96 308.869 204.636 314.742 224.333H343.083C361.98 224.333 380.103 231.84 393.465 245.202C406.827 258.564 414.333 276.687 414.333 295.583C414.333 314.48 406.827 332.603 393.465 345.965C380.103 359.327 361.98 366.833 343.083 366.833Z" stroke="white" stroke-width="30" stroke-linecap="round" stroke-linejoin="round"/>
<defs>
<linearGradient id="paint0_linear_1_64" x1="512" y1="0" x2="0" y2="512" gradientUnits="userSpaceOnUse">
<stop stop-color="#321CBB"/>
<stop offset="1" stop-color="#9999ff"/>
</linearGradient>
</defs>
</svg>
