<svg width="550" height="550" viewBox="0 0 550 550" fill="none" xmlns="http://www.w3.org/2000/svg">
<rect width="550" height="550" fill="url(#paint0_radial_1_8)"/>
<path d="M445.275 380L305.275 135C302.222 129.614 297.796 125.133 292.446 122.016C287.097 118.899 281.016 117.257 274.825 117.257C268.634 117.257 262.553 118.899 257.204 122.016C251.854 125.133 247.428 129.614 244.375 135L104.375 380C101.289 385.344 99.6715 391.408 99.6852 397.579C99.6988 403.75 101.344 409.807 104.453 415.137C107.562 420.467 112.025 424.88 117.39 427.93C122.754 430.979 128.83 432.556 135 432.5H415C421.141 432.494 427.172 430.872 432.487 427.797C437.803 424.723 442.216 420.304 445.284 414.984C448.352 409.665 449.966 403.632 449.964 397.491C449.963 391.35 448.345 385.318 445.275 380Z" fill="url(#paint1_radial_1_8)" stroke="white" stroke-width="30" stroke-linecap="round" stroke-linejoin="round"/>
<path d="M275 222.5V292.5Z" fill="url(#paint2_radial_1_8)"/>
<path d="M275 222.5V292.5" stroke="white" stroke-width="30" stroke-linecap="round" stroke-linejoin="round"/>
<path d="M275 362.5H275.175Z" fill="url(#paint3_radial_1_8)"/>
<path d="M275 362.5H275.175" stroke="white" stroke-width="30" stroke-linecap="round" stroke-linejoin="round"/>
<defs>
<radialGradient id="paint0_radial_1_8" cx="0" cy="0" r="1" gradientUnits="userSpaceOnUse" gradientTransform="translate(275 275) rotate(45) scale(388.909)">
<stop stop-color="#FFCC00"/>
<stop offset="0.715" stop-color="#B99400"/>
</radialGradient>
<radialGradient id="paint1_radial_1_8" cx="0" cy="0" r="1" gradientUnits="userSpaceOnUse" gradientTransform="translate(274.825 274.879) rotate(41.9866) scale(235.624 234.322)">
<stop stop-color="#FFCC00"/>
<stop offset="0.715" stop-color="#B99400"/>
</radialGradient>
<radialGradient id="paint2_radial_1_8" cx="0" cy="0" r="1" gradientUnits="userSpaceOnUse" gradientTransform="translate(275.5 257.5) rotate(89.1815) scale(35.0036 0.999898)">
<stop stop-color="#FFCC00"/>
<stop offset="0.715" stop-color="#B99400"/>
</radialGradient>
<radialGradient id="paint3_radial_1_8" cx="0" cy="0" r="1" gradientUnits="userSpaceOnUse" gradientTransform="translate(275.088 363) rotate(80.0735) scale(0.507599 0.172384)">
<stop stop-color="#FFCC00"/>
<stop offset="0.715" stop-color="#B99400"/>
</radialGradient>
</defs>
</svg>
