<svg width="512" height="512" viewBox="0 0 512 512" fill="none" xmlns="http://www.w3.org/2000/svg">
<rect width="512" height="512" fill="url(#paint0_linear_1_51)"/>
<path d="M414.333 271.833L393.813 251.313C386.657 244.159 376.953 240.139 366.833 240.139C356.714 240.139 347.009 244.159 339.853 251.313L240.167 351" stroke="white" stroke-width="30" stroke-linecap="round" stroke-linejoin="round"/>
<path d="M256 224.333C273.489 224.333 287.667 210.156 287.667 192.667C287.667 175.178 273.489 161 256 161C238.511 161 224.333 175.178 224.333 192.667C224.333 210.156 238.511 224.333 256 224.333Z" stroke="white" stroke-width="30" stroke-linecap="round" stroke-linejoin="round"/>
<path d="M382.667 97.6666H192.667C175.178 97.6666 161 111.844 161 129.333V319.333C161 336.822 175.178 351 192.667 351H382.667C400.156 351 414.333 336.822 414.333 319.333V129.333C414.333 111.844 400.156 97.6666 382.667 97.6666Z" stroke="white" stroke-width="30" stroke-linecap="round" stroke-linejoin="round"/>
<path d="M351 414.333H129.333C120.935 414.333 112.88 410.997 106.942 405.058C101.003 399.12 97.6667 391.065 97.6667 382.667V161" stroke="white" stroke-width="30" stroke-linecap="round" stroke-linejoin="round"/>
<defs>
<linearGradient id="paint0_linear_1_51" x1="512" y1="0" x2="0" y2="512" gradientUnits="userSpaceOnUse">
<stop stop-color="#F39596"/>
<stop offset="1" stop-color="#FFDB58"/>
</linearGradient>
</defs>
</svg>
